<svg width="122" height="123" viewBox="0 0 122 123" fill="none" xmlns="http://www.w3.org/2000/svg">
<path d="M16.7979 54.0308C16.7979 74.4896 33.3059 91.1158 53.5789 91.1158C62.9189 91.1158 71.4625 87.5752 77.9608 81.7715L101.401 105.406C101.836 105.844 102.397 106.063 102.976 106.063C103.555 106.063 104.117 105.844 104.551 105.406C105.42 104.53 105.42 103.125 104.551 102.249L81.0922 78.6142C86.8483 72.0623 90.3599 63.4663 90.3599 54.0308C90.3599 33.572 73.8519 16.9458 53.5789 16.9458C33.3059 16.9458 16.7979 33.572 16.7979 54.0308ZM85.9252 54.0308C85.9252 72.0075 71.4082 86.6444 53.5789 86.6444C35.7495 86.6444 21.2326 72.0075 21.2326 54.0308C21.2326 36.0541 35.7495 21.4172 53.5789 21.4172C71.4082 21.4172 85.9252 36.0358 85.9252 54.0308Z" fill="#7090A8" stroke="#7090A8" stroke-width="14.4926"/>
</svg>
